<mxfile host="app.diagrams.net" modified="2023-05-18T09:00:55.435Z" agent="Mozilla/5.0 (Windows NT 10.0; Win64; x64) AppleWebKit/537.36 (KHTML, like Gecko) Chrome/113.0.0.0 Safari/537.36" etag="OxbGEb3VE0tZUaFkr0f0" version="21.3.2" type="github">
  <diagram name="Page-1" id="Jyb1E-cL9FY6I5FODXpO">
    <mxGraphModel dx="1257" dy="680" grid="1" gridSize="10" guides="1" tooltips="1" connect="1" arrows="1" fold="1" page="1" pageScale="1" pageWidth="2200" pageHeight="3500" math="0" shadow="0">
      <root>
        <mxCell id="0" />
        <mxCell id="1" parent="0" />
        <mxCell id="KXixQivOY7CMZe9N-yKC-2" value="" style="endArrow=none;html=1;rounded=0;" parent="1" edge="1">
          <mxGeometry width="50" height="50" relative="1" as="geometry">
            <mxPoint x="80" y="80" as="sourcePoint" />
            <mxPoint x="2080" y="80" as="targetPoint" />
          </mxGeometry>
        </mxCell>
        <mxCell id="KXixQivOY7CMZe9N-yKC-3" value="" style="endArrow=classic;html=1;rounded=0;" parent="1" target="VJkUBVHSnUX9wG8tF2r3-1" edge="1">
          <mxGeometry width="50" height="50" relative="1" as="geometry">
            <mxPoint x="80" y="80" as="sourcePoint" />
            <mxPoint x="80" y="120" as="targetPoint" />
          </mxGeometry>
        </mxCell>
        <mxCell id="KXixQivOY7CMZe9N-yKC-10" value="" style="endArrow=classic;html=1;rounded=0;" parent="1" edge="1">
          <mxGeometry width="50" height="50" relative="1" as="geometry">
            <mxPoint x="280" y="80" as="sourcePoint" />
            <mxPoint x="280" y="120" as="targetPoint" />
          </mxGeometry>
        </mxCell>
        <mxCell id="KXixQivOY7CMZe9N-yKC-11" value="" style="endArrow=classic;html=1;rounded=0;" parent="1" edge="1">
          <mxGeometry width="50" height="50" relative="1" as="geometry">
            <mxPoint x="480" y="80" as="sourcePoint" />
            <mxPoint x="480" y="120" as="targetPoint" />
          </mxGeometry>
        </mxCell>
        <mxCell id="KXixQivOY7CMZe9N-yKC-12" value="" style="endArrow=classic;html=1;rounded=0;" parent="1" edge="1">
          <mxGeometry width="50" height="50" relative="1" as="geometry">
            <mxPoint x="680" y="80" as="sourcePoint" />
            <mxPoint x="680" y="120" as="targetPoint" />
          </mxGeometry>
        </mxCell>
        <mxCell id="KXixQivOY7CMZe9N-yKC-13" value="" style="endArrow=classic;html=1;rounded=0;" parent="1" edge="1">
          <mxGeometry width="50" height="50" relative="1" as="geometry">
            <mxPoint x="880" y="80" as="sourcePoint" />
            <mxPoint x="880" y="120" as="targetPoint" />
          </mxGeometry>
        </mxCell>
        <mxCell id="KXixQivOY7CMZe9N-yKC-19" value="" style="endArrow=classic;html=1;rounded=0;" parent="1" edge="1">
          <mxGeometry width="50" height="50" relative="1" as="geometry">
            <mxPoint x="1680" y="80" as="sourcePoint" />
            <mxPoint x="1680" y="120" as="targetPoint" />
          </mxGeometry>
        </mxCell>
        <mxCell id="KXixQivOY7CMZe9N-yKC-21" value="" style="endArrow=classic;html=1;rounded=0;" parent="1" edge="1">
          <mxGeometry width="50" height="50" relative="1" as="geometry">
            <mxPoint x="1080" y="80" as="sourcePoint" />
            <mxPoint x="1080" y="120" as="targetPoint" />
          </mxGeometry>
        </mxCell>
        <mxCell id="KXixQivOY7CMZe9N-yKC-22" value="" style="endArrow=classic;html=1;rounded=0;" parent="1" edge="1">
          <mxGeometry width="50" height="50" relative="1" as="geometry">
            <mxPoint x="1280" y="80" as="sourcePoint" />
            <mxPoint x="1280" y="120" as="targetPoint" />
          </mxGeometry>
        </mxCell>
        <mxCell id="KXixQivOY7CMZe9N-yKC-23" value="" style="endArrow=classic;html=1;rounded=0;" parent="1" edge="1">
          <mxGeometry width="50" height="50" relative="1" as="geometry">
            <mxPoint x="1480" y="80" as="sourcePoint" />
            <mxPoint x="1480" y="120" as="targetPoint" />
          </mxGeometry>
        </mxCell>
        <mxCell id="KXixQivOY7CMZe9N-yKC-24" value="" style="endArrow=classic;html=1;rounded=0;" parent="1" edge="1">
          <mxGeometry width="50" height="50" relative="1" as="geometry">
            <mxPoint x="2080" y="80" as="sourcePoint" />
            <mxPoint x="2080" y="120" as="targetPoint" />
          </mxGeometry>
        </mxCell>
        <mxCell id="KXixQivOY7CMZe9N-yKC-25" value="" style="endArrow=classic;html=1;rounded=0;" parent="1" edge="1">
          <mxGeometry width="50" height="50" relative="1" as="geometry">
            <mxPoint x="1880" y="80" as="sourcePoint" />
            <mxPoint x="1880" y="120" as="targetPoint" />
          </mxGeometry>
        </mxCell>
        <mxCell id="VJkUBVHSnUX9wG8tF2r3-1" value="&lt;font style=&quot;font-size: 14px;&quot;&gt;Pre-Boarding&lt;/font&gt;" style="rounded=0;whiteSpace=wrap;html=1;fillColor=#A9C4EB;" vertex="1" parent="1">
          <mxGeometry x="20" y="120" width="120" height="40" as="geometry" />
        </mxCell>
        <mxCell id="VJkUBVHSnUX9wG8tF2r3-4" value="" style="rounded=0;whiteSpace=wrap;html=1;fillColor=#A9C4EB;" vertex="1" parent="1">
          <mxGeometry x="2020" y="120" width="120" height="40" as="geometry" />
        </mxCell>
        <mxCell id="VJkUBVHSnUX9wG8tF2r3-5" value="" style="rounded=0;whiteSpace=wrap;html=1;fillColor=#A9C4EB;" vertex="1" parent="1">
          <mxGeometry x="1820" y="120" width="120" height="40" as="geometry" />
        </mxCell>
        <mxCell id="VJkUBVHSnUX9wG8tF2r3-6" value="" style="rounded=0;whiteSpace=wrap;html=1;fillColor=#A9C4EB;" vertex="1" parent="1">
          <mxGeometry x="1620" y="120" width="120" height="40" as="geometry" />
        </mxCell>
        <mxCell id="VJkUBVHSnUX9wG8tF2r3-7" value="" style="rounded=0;whiteSpace=wrap;html=1;fillColor=#A9C4EB;" vertex="1" parent="1">
          <mxGeometry x="1420" y="120" width="120" height="40" as="geometry" />
        </mxCell>
        <mxCell id="VJkUBVHSnUX9wG8tF2r3-8" value="" style="rounded=0;whiteSpace=wrap;html=1;fillColor=#A9C4EB;" vertex="1" parent="1">
          <mxGeometry x="1220" y="120" width="120" height="40" as="geometry" />
        </mxCell>
        <mxCell id="VJkUBVHSnUX9wG8tF2r3-9" value="" style="rounded=0;whiteSpace=wrap;html=1;fillColor=#A9C4EB;" vertex="1" parent="1">
          <mxGeometry x="1020" y="120" width="120" height="40" as="geometry" />
        </mxCell>
        <mxCell id="VJkUBVHSnUX9wG8tF2r3-10" value="" style="rounded=0;whiteSpace=wrap;html=1;fillColor=#A9C4EB;" vertex="1" parent="1">
          <mxGeometry x="820" y="120" width="120" height="40" as="geometry" />
        </mxCell>
        <mxCell id="VJkUBVHSnUX9wG8tF2r3-11" value="" style="rounded=0;whiteSpace=wrap;html=1;fillColor=#A9C4EB;" vertex="1" parent="1">
          <mxGeometry x="620" y="120" width="120" height="40" as="geometry" />
        </mxCell>
        <mxCell id="VJkUBVHSnUX9wG8tF2r3-12" value="" style="rounded=0;whiteSpace=wrap;html=1;fillColor=#A9C4EB;" vertex="1" parent="1">
          <mxGeometry x="420" y="120" width="120" height="40" as="geometry" />
        </mxCell>
        <mxCell id="VJkUBVHSnUX9wG8tF2r3-13" value="" style="rounded=0;whiteSpace=wrap;html=1;fillColor=#A9C4EB;" vertex="1" parent="1">
          <mxGeometry x="220" y="120" width="120" height="40" as="geometry" />
        </mxCell>
        <mxCell id="VJkUBVHSnUX9wG8tF2r3-17" value="Pre-Boarding Form&lt;br&gt;(QR scanner)" style="rounded=0;whiteSpace=wrap;html=1;" vertex="1" parent="1">
          <mxGeometry x="20" y="200" width="120" height="40" as="geometry" />
        </mxCell>
        <mxCell id="VJkUBVHSnUX9wG8tF2r3-19" value="" style="endArrow=classic;html=1;rounded=0;" edge="1" parent="1">
          <mxGeometry width="50" height="50" relative="1" as="geometry">
            <mxPoint x="79.47" y="160" as="sourcePoint" />
            <mxPoint x="79.47" y="200" as="targetPoint" />
          </mxGeometry>
        </mxCell>
        <mxCell id="VJkUBVHSnUX9wG8tF2r3-21" value="" style="endArrow=classic;html=1;rounded=0;" edge="1" parent="1">
          <mxGeometry width="50" height="50" relative="1" as="geometry">
            <mxPoint x="79.47" y="240" as="sourcePoint" />
            <mxPoint x="79.47" y="280" as="targetPoint" />
            <Array as="points">
              <mxPoint x="79" y="260" />
            </Array>
          </mxGeometry>
        </mxCell>
        <mxCell id="VJkUBVHSnUX9wG8tF2r3-22" value="HR Request Form" style="rhombus;whiteSpace=wrap;html=1;" vertex="1" parent="1">
          <mxGeometry x="10" y="280" width="140" height="80" as="geometry" />
        </mxCell>
      </root>
    </mxGraphModel>
  </diagram>
</mxfile>
